<svg width="20" height="21" viewBox="0 0 20 21" fill="none" xmlns="http://www.w3.org/2000/svg">
<path fill-rule="evenodd" clip-rule="evenodd" d="M19.571 11.9028C19.6417 11.4428 19.6771 10.9475 19.6771 10.4167C19.6771 4.89669 15.8202 0.968994 10.0525 0.968994C4.17867 0.968994 0.250977 4.96746 0.250977 10.5582C0.250977 16.7859 5.13405 20.0767 10.5833 20.0767C13.3787 20.0767 16.6694 19.1921 18.7217 16.8921C18.7925 16.8213 18.8279 16.6798 18.8279 16.5736C18.8279 16.4321 18.7925 16.3259 18.6864 16.2198L16.4217 14.0613C16.351 13.9551 16.2448 13.9198 16.1033 13.9198C15.9617 13.9198 15.8556 13.9551 15.7494 14.0613C14.5464 15.2644 12.671 15.9013 10.831 15.9013C8.28328 15.9013 6.01867 14.6275 5.70021 11.9028H19.571ZM14.2987 9.0013H5.66482C5.84175 6.48899 7.61098 4.93207 10.0171 4.96746C12.3525 4.96746 14.0864 6.41822 14.2987 9.0013Z" fill="black"/>
</svg>
