<svg width="8" height="31" viewBox="0 0 8 31" fill="none" xmlns="http://www.w3.org/2000/svg">
<path d="M7.36 25.3352L7.96154 28.6614C7.99692 28.8383 7.96154 28.9799 7.89077 29.1214C7.82 29.2629 7.71385 29.3337 7.60769 29.4045C6.82923 29.7937 5.90923 30.0414 4.81231 30.0414C1.73385 30.0414 0 28.0952 0 24.7337V0.70755L4.98923 0.0352419C5.13077 -0.000142727 5.27231 0.0352419 5.37846 0.141396C5.52 0.24755 5.59077 0.424473 5.59077 0.566011V23.7429C5.59077 24.5922 5.80308 25.0875 6.40462 25.0875C6.58154 25.0875 6.68769 25.0522 6.79385 25.0168C6.9 24.9814 7.04154 24.946 7.14769 25.0168C7.25385 25.1229 7.32462 25.2291 7.36 25.3352Z" fill="black"/>
</svg>
