<svg width="94" height="36" viewBox="0 0 94 36" fill="none" xmlns="http://www.w3.org/2000/svg">
<path d="M61.2988 27.4065C61.2988 29.168 62.7368 30.6059 64.4983 30.6059C66.2598 30.6059 67.6977 29.168 67.6977 27.4065C67.6977 25.645 66.2598 24.207 64.4983 24.207C62.7368 24.207 61.2988 25.645 61.2988 27.4065Z" fill="url(#paint0_linear_1940_3011)"/>
<path d="M66.7637 0.0493164C66.7278 0.0493164 66.7278 0.0493164 66.6919 0.0493164L61.623 0.732347V22.3017C61.623 22.3017 66.5481 21.6546 66.6559 21.6187C66.7997 21.5828 66.9794 21.5468 67.0513 21.5109C67.303 21.3311 67.267 21.0435 67.267 20.6481V0.588551C67.267 0.408806 67.1951 0.229061 67.0513 0.157163C67.0154 0.0852654 66.9075 0.0493164 66.7637 0.0493164Z" fill="url(#paint1_linear_1940_3011)"/>
<path fill-rule="evenodd" clip-rule="evenodd" d="M91.4961 11.6661V11.5532H92.2151V11.6661H91.9275V12.5692H91.7837V11.6661H91.4961ZM92.8981 12.3059L93.2217 11.5533H93.3295L93.4374 12.5693H93.2936L93.2217 11.8167L92.9341 12.4564H92.8262L92.5386 11.8167L92.4668 12.5693H92.323L92.4308 11.5533H92.5386L92.8981 12.3059Z" fill="#231F20"/>
<path d="M91.1012 11.7329C91.1731 11.8407 91.1731 11.9845 91.1372 12.0924L82.7611 30.714C81.0355 34.5964 78.4472 35.603 75.8948 35.603C74.6007 35.603 73.63 35.3873 72.7673 34.92C72.6594 34.8481 72.5875 34.7762 72.5156 34.6683C72.4437 34.5245 72.4078 34.3448 72.4797 34.1651C72.4797 34.1651 73.3425 31.397 73.4503 31.1094C73.5581 30.7859 73.8457 30.7499 74.0255 30.8578C74.4569 31.0734 74.6726 31.1813 75.3556 31.1813C76.3622 31.1813 77.3687 30.7859 77.9439 29.5636L78.4472 28.5211L73.4143 18.024C72.6594 16.4782 72.1561 16.1546 71.6169 16.1546C71.1496 16.1546 71.0058 16.3344 70.5744 16.2625C70.3587 16.2265 70.2508 16.0827 70.2149 15.867C70.1789 15.5794 69.6038 12.4519 69.6038 12.4519C69.5678 12.3081 69.6038 12.1643 69.6397 12.0205C69.7116 11.8767 69.7835 11.7688 69.9273 11.6969C70.6103 11.3375 71.4731 11.1577 72.4437 11.1577C75.4994 11.1577 76.9733 13.1349 78.4832 16.622L81.2153 22.8411L86.1043 11.5891H90.7418C90.8855 11.5532 91.0293 11.6251 91.1012 11.7329Z" fill="white"/>
<path fill-rule="evenodd" clip-rule="evenodd" d="M58.927 22.2298C58.9989 21.7625 59.0348 21.2592 59.0348 20.72C59.0348 15.1119 55.1164 11.1216 49.2567 11.1216C43.2892 11.1216 39.2988 15.1838 39.2988 20.8638C39.2988 27.1908 44.2598 30.534 49.7959 30.534C52.6359 30.534 55.9792 29.6353 58.0642 27.2986C58.1361 27.2267 58.172 27.0829 58.172 26.9751C58.172 26.8313 58.1361 26.7234 58.0282 26.6156L55.7275 24.4227C55.6556 24.3149 55.5478 24.2789 55.404 24.2789C55.2602 24.2789 55.1523 24.3149 55.0445 24.4227C53.8222 25.645 51.9169 26.292 50.0476 26.292C47.4592 26.292 45.1585 24.9979 44.835 22.2298H58.927ZM53.5706 19.282H44.799C44.9788 16.7296 46.7762 15.1478 49.2207 15.1838C51.5934 15.1838 53.3549 16.6577 53.5706 19.282Z" fill="white"/>
<path d="M27.1831 16.6579L29.8073 23.8477L34.4447 11.6251H39.226C39.3698 11.6251 39.5136 11.6969 39.5855 11.8048C39.6574 11.9126 39.6574 12.0564 39.6214 12.1643L32.18 30.0669H27.4706L22.4018 18.024C21.8267 16.5141 21.1796 16.1546 20.6044 16.1546C20.2449 16.1187 19.3462 16.586 19.2024 15.867L18.5913 12.4878C18.5553 12.3081 18.5913 12.1643 18.6631 12.0205C18.735 11.9126 18.8069 11.8048 18.9507 11.7329C19.5978 11.3734 20.4965 11.1577 21.4672 11.1577C24.4509 11.1937 25.9608 13.0271 27.1831 16.6579Z" fill="white"/>
<rect x="10.7549" y="11.625" width="5.67994" height="18.4418" fill="white"/>
<path d="M13.5227 9.14452C15.2842 9.14452 16.7222 7.70656 16.7222 5.94506C16.7222 4.18356 15.2842 2.74561 13.5227 2.74561C11.7612 2.74561 10.3232 4.18356 10.3232 5.94506C10.3232 7.70656 11.7612 9.14452 13.5227 9.14452Z" fill="url(#paint2_linear_1940_3011)"/>
<path d="M7.91489 25.717L8.52602 29.0962C8.56197 29.2759 8.52602 29.4197 8.45412 29.5635C8.38222 29.7073 8.27438 29.7792 8.16653 29.8511C7.37565 30.2466 6.44098 30.4982 5.32656 30.4982C2.199 30.4982 0.4375 28.521 0.4375 25.1059V0.696511L5.50631 0.0134809C5.6501 -0.0224681 5.7939 0.0134809 5.90174 0.121328C6.04554 0.229175 6.11744 0.40892 6.11744 0.552715V24.0993C6.11744 24.9621 6.33313 25.4654 6.94426 25.4654C7.12401 25.4654 7.23186 25.4294 7.3397 25.3935C7.44755 25.3575 7.59135 25.3216 7.69919 25.3935C7.80704 25.5013 7.87894 25.6091 7.91489 25.717Z" fill="white"/>
<defs>
<linearGradient id="paint0_linear_1940_3011" x1="63.4595" y1="35.7322" x2="71.3358" y2="29.4262" gradientUnits="userSpaceOnUse">
<stop stop-color="#F7901E"/>
<stop offset="0.512584" stop-color="#ED0024"/>
<stop offset="1" stop-color="#EC008C"/>
</linearGradient>
<linearGradient id="paint1_linear_1940_3011" x1="63.5294" y1="40.1285" x2="74.4813" y2="37.9038" gradientUnits="userSpaceOnUse">
<stop stop-color="#F7901E"/>
<stop offset="0.512584" stop-color="#ED0024"/>
<stop offset="1" stop-color="#EC008C"/>
</linearGradient>
<linearGradient id="paint2_linear_1940_3011" x1="7.94903" y1="6.50194" x2="16.3457" y2="8.22498" gradientUnits="userSpaceOnUse">
<stop stop-color="#F7901E"/>
<stop offset="0.512584" stop-color="#ED0024"/>
<stop offset="1" stop-color="#EC008C"/>
</linearGradient>
</defs>
</svg>
