<svg width="94" height="36" viewBox="0 0 94 36" fill="none" xmlns="http://www.w3.org/2000/svg">
<path d="M59.9062 26.9984C59.9062 28.7322 61.3216 30.1476 63.0555 30.1476C64.7893 30.1476 66.2047 28.7322 66.2047 26.9984C66.2047 25.2645 64.7893 23.8491 63.0555 23.8491C61.3216 23.8491 59.9062 25.2645 59.9062 26.9984Z" fill="url(#paint0_linear_1940_2967)"/>
<path d="M65.2846 0.0705566C65.2492 0.0705566 65.2492 0.0705566 65.2138 0.0705566L60.2246 0.742864V21.9736C60.2246 21.9736 65.0723 21.3367 65.1785 21.3013C65.32 21.2659 65.4969 21.2306 65.5677 21.1952C65.8154 21.0182 65.78 20.7352 65.78 20.3459V0.601326C65.78 0.424403 65.7092 0.24748 65.5677 0.17671C65.5323 0.105941 65.4261 0.0705566 65.2846 0.0705566Z" fill="url(#paint1_linear_1940_2967)"/>
<path fill-rule="evenodd" clip-rule="evenodd" d="M89.6289 11.6264V11.3938H91.1104V11.6264H90.5178V13.4872H90.2215V11.6264H89.6289ZM92.5178 12.9445L93.1845 11.3938H93.4067L93.6289 13.4872H93.3326L93.1845 11.9365L92.5919 13.2546H92.3696L91.7771 11.9365L91.6289 13.4872H91.3326L91.5548 11.3938H91.7771L92.5178 12.9445Z" fill="black"/>
<path d="M89.2401 11.5705C89.3109 11.6767 89.3109 11.8182 89.2755 11.9244L81.0309 30.2536C79.3324 34.0752 76.7847 35.0659 74.2724 35.0659C72.9985 35.0659 72.0432 34.8536 71.1939 34.3936C71.0878 34.3229 71.017 34.2521 70.9462 34.1459C70.8755 34.0044 70.8401 33.8275 70.9109 33.6505C70.9109 33.6505 71.7601 30.9259 71.8662 30.6429C71.9724 30.3244 72.2555 30.289 72.4324 30.3952C72.857 30.6075 73.0693 30.7136 73.7416 30.7136C74.7324 30.7136 75.7232 30.3244 76.2893 29.1213L76.7847 28.0952L71.8309 17.7629C71.0878 16.2413 70.5924 15.9229 70.0616 15.9229C69.6016 15.9229 69.4601 16.0998 69.0355 16.029C68.8232 15.9936 68.717 15.8521 68.6816 15.6398C68.6462 15.3567 68.0801 12.2782 68.0801 12.2782C68.0447 12.1367 68.0801 11.9952 68.1155 11.8536C68.1862 11.7121 68.257 11.6059 68.3985 11.5352C69.0709 11.1813 69.9201 11.0044 70.8755 11.0044C73.8832 11.0044 75.3339 12.9505 76.8201 16.3829L79.5093 22.5044L84.3216 11.429H88.8862C89.0278 11.3936 89.1693 11.4644 89.2401 11.5705" fill="black"/>
<path fill-rule="evenodd" clip-rule="evenodd" d="M57.571 21.9028C57.6417 21.4428 57.6771 20.9475 57.6771 20.4167C57.6771 14.8967 53.8202 10.969 48.0525 10.969C42.1787 10.969 38.251 14.9675 38.251 20.5582C38.251 26.7859 43.1341 30.0767 48.5833 30.0767C51.3787 30.0767 54.6694 29.1921 56.7217 26.8921C56.7925 26.8213 56.8279 26.6798 56.8279 26.5736C56.8279 26.4321 56.7925 26.3259 56.6864 26.2198L54.4217 24.0613C54.351 23.9551 54.2448 23.9198 54.1033 23.9198C53.9617 23.9198 53.8556 23.9551 53.7494 24.0613C52.5464 25.2644 50.671 25.9013 48.831 25.9013C46.2833 25.9013 44.0187 24.6275 43.7002 21.9028H57.571ZM52.2987 19.0013H43.6648C43.8417 16.489 45.611 14.9321 48.0171 14.9675C50.3525 14.9675 52.0864 16.4182 52.2987 19.0013Z" fill="black"/>
<path d="M26.3263 16.4182L28.9094 23.4952L33.474 11.4644H38.1801C38.3217 11.4644 38.4632 11.5352 38.534 11.6413C38.6047 11.7475 38.6047 11.889 38.5694 11.9952L31.2447 29.6167H26.6094L21.6201 17.7629C21.054 16.2767 20.417 15.9229 19.8509 15.9229C19.497 15.8875 18.6124 16.3475 18.4709 15.6398L17.8694 12.3136C17.834 12.1367 17.8694 11.9952 17.9401 11.8536C18.0109 11.7475 18.0817 11.6413 18.2232 11.5705C18.8601 11.2167 19.7447 11.0044 20.7001 11.0044C23.637 11.0398 25.1232 12.8444 26.3263 16.4182" fill="black"/>
<rect x="10.1553" y="11.4644" width="5.59077" height="18.1523" fill="black"/>
<path d="M12.8797 9.02283C14.6135 9.02283 16.0289 7.60744 16.0289 5.8736C16.0289 4.13975 14.6135 2.72437 12.8797 2.72437C11.1459 2.72437 9.73047 4.13975 9.73047 5.8736C9.73047 7.60744 11.1459 9.02283 12.8797 9.02283Z" fill="url(#paint2_linear_1940_2967)"/>
<path d="M7.36 25.3352L7.96154 28.6614C7.99692 28.8383 7.96154 28.9799 7.89077 29.1214C7.82 29.2629 7.71385 29.3337 7.60769 29.4045C6.82923 29.7937 5.90923 30.0414 4.81231 30.0414C1.73385 30.0414 0 28.0952 0 24.7337V0.70755L4.98923 0.0352419C5.13077 -0.000142727 5.27231 0.0352419 5.37846 0.141396C5.52 0.24755 5.59077 0.424473 5.59077 0.566011V23.7429C5.59077 24.5922 5.80308 25.0875 6.40462 25.0875C6.58154 25.0875 6.68769 25.0522 6.79385 25.0168C6.9 24.9814 7.04154 24.946 7.14769 25.0168C7.25385 25.1229 7.32462 25.2291 7.36 25.3352" fill="black"/>
<defs>
<linearGradient id="paint0_linear_1940_2967" x1="59.9062" y1="23.8491" x2="67.4585" y2="27.6681" gradientUnits="userSpaceOnUse">
<stop stop-color="#DE7B1C"/>
<stop offset="0.322917" stop-color="#EC551C"/>
<stop offset="0.666667" stop-color="#E60046"/>
<stop offset="1" stop-color="#D9328A"/>
</linearGradient>
<linearGradient id="paint1_linear_1940_2967" x1="60.2246" y1="0.0705566" x2="68.4564" y2="1.12668" gradientUnits="userSpaceOnUse">
<stop stop-color="#DE7B1C"/>
<stop offset="0.322917" stop-color="#EC551C"/>
<stop offset="0.666667" stop-color="#E60046"/>
<stop offset="1" stop-color="#D9328A"/>
</linearGradient>
<linearGradient id="paint2_linear_1940_2967" x1="9.73047" y1="2.72437" x2="17.2827" y2="6.54339" gradientUnits="userSpaceOnUse">
<stop stop-color="#DE7B1C"/>
<stop offset="0.322917" stop-color="#EC551C"/>
<stop offset="0.666667" stop-color="#E60046"/>
<stop offset="1" stop-color="#D9328A"/>
</linearGradient>
</defs>
</svg>
