<svg width="22" height="19" viewBox="0 0 22 19" fill="none" xmlns="http://www.w3.org/2000/svg">
<path d="M9.32627 5.41824L11.9094 12.4952L16.474 0.464395H21.1801C21.3217 0.464395 21.4632 0.535164 21.534 0.641318C21.6047 0.747471 21.6047 0.88901 21.5694 0.995164L14.2447 18.6167H9.60935L4.62012 6.76286C4.05397 5.2767 3.41704 4.92286 2.85089 4.92286C2.49704 4.88747 1.61243 5.34747 1.47089 4.63978L0.86935 1.31363C0.833966 1.1367 0.86935 0.995164 0.94012 0.853625C1.01089 0.747471 1.08166 0.641318 1.2232 0.570548C1.86012 0.216702 2.74473 0.00439453 3.70012 0.00439453C6.63704 0.0397791 8.1232 1.84439 9.32627 5.41824Z" fill="black"/>
</svg>
