<svg width="22" height="25" viewBox="0 0 22 25" fill="none" xmlns="http://www.w3.org/2000/svg">
<path d="M21.2401 0.570548C21.3109 0.676702 21.3109 0.818241 21.2755 0.924395L13.0309 19.2536C11.3324 23.0752 8.7847 24.0659 6.27239 24.0659C4.99855 24.0659 4.04316 23.8536 3.19393 23.3936C3.08778 23.3229 3.01701 23.2521 2.94624 23.1459C2.87547 23.0044 2.84009 22.8275 2.91086 22.6505C2.91086 22.6505 3.76009 19.9259 3.86624 19.6429C3.97239 19.3244 4.25547 19.289 4.43239 19.3952C4.85701 19.6075 5.06932 19.7136 5.74162 19.7136C6.73239 19.7136 7.72316 19.3244 8.28932 18.1213L8.7847 17.0952L3.83086 6.76286C3.08778 5.24132 2.59239 4.92286 2.06162 4.92286C1.60162 4.92286 1.46009 5.09978 1.03547 5.02901C0.823163 4.99363 0.71701 4.85209 0.681625 4.63978C0.64624 4.3567 0.0800865 1.27824 0.0800865 1.27824C0.0447019 1.1367 0.0800865 0.995164 0.115471 0.853625C0.18624 0.712087 0.25701 0.605933 0.398548 0.535164C1.07086 0.181318 1.92009 0.00439453 2.87547 0.00439453C5.88316 0.00439453 7.33393 1.95055 8.82009 5.38286L11.5093 11.5044L16.3216 0.42901H20.8862C21.0278 0.393625 21.1693 0.464395 21.2401 0.570548Z" fill="black"/>
</svg>
